<svg xmlns="http://www.w3.org/2000/svg" width="18" height="18" viewBox="0 0 18 18">
    <defs>
        <style>
            .cls-1{fill:none}.cls-2{clip-path:url(#clip-path)}.cls-3{fill:#0075ff}
        </style>
        <clipPath id="clip-path">
            <path d="M0 0h18v18H0z" class="cls-1"/>
        </clipPath>
    </defs>
    <g id="instagram-icon" class="cls-2">
        <g id="Group_14" data-name="Group 14" transform="translate(-307 -438.24)">
            <path id="Path_53" d="M307 447.768v-1.055l.043-.379a9.03 9.03 0 0 1 7.407-7.954c.338-.06.682-.094 1.023-.14h1.054a.944.944 0 0 0 .136.029 8.568 8.568 0 0 1 3.927 1.239 8.881 8.881 0 0 1 4.27 6.184c.063.337.094.68.14 1.021v1.055l-.043.379a9.027 9.027 0 0 1-7.407 7.953c-.338.06-.682.094-1.023.14h-1.054a1.1 1.1 0 0 0-.136-.029 8.567 8.567 0 0 1-3.927-1.238 8.885 8.885 0 0 1-4.27-6.184c-.063-.338-.094-.681-.14-1.021zm8.995-5.648h-3.005a2.539 2.539 0 0 0-.523.045 1.974 1.974 0 0 0-1.587 2.017v6.115a2.321 2.321 0 0 0 .044.471 1.978 1.978 0 0 0 2.031 1.592h6.08a2.45 2.45 0 0 0 .506-.047 1.974 1.974 0 0 0 1.578-2.024v-6.1a2.434 2.434 0 0 0-.079-.625 1.974 1.974 0 0 0-1.985-1.447c-1.022 0-2.041.003-3.06.003z" class="cls-3" data-name="Path 53"/>
            <path id="Path_54" d="M313.389 446.2a2.84 2.84 0 0 0 .954 3.292 2.746 2.746 0 0 0 3.06.161 2.785 2.785 0 0 0 1.213-3.46h1.494c0 .066.008.128.008.19v3.884a.985.985 0 0 1-1.085 1.091h-6.064a.985.985 0 0 1-1.088-1.088V446.2z" class="cls-3" data-name="Path 54"/>
            <path id="Path_55" d="M315.983 449.038a1.8 1.8 0 1 1 1.814-1.762 1.8 1.8 0 0 1-1.814 1.762z" class="cls-3" data-name="Path 55"/>
            <path id="Path_56" d="M319.926 445.032h-1.706v-1.719h1.706z" class="cls-3" data-name="Path 56"/>
        </g>
    </g>
</svg>
