<svg xmlns="http://www.w3.org/2000/svg" width="18" height="18" viewBox="0 0 18 18">
    <defs>
        <style>
            .cls-1{fill:none}.cls-2{clip-path:url(#clip-path)}.cls-3{fill:#0075ff}
        </style>
        <clipPath id="clip-path">
            <path d="M0 0h18v18H0z" class="cls-1"/>
        </clipPath>
    </defs>
    <g id="linkedin-icon" class="cls-2">
        <g id="Group_13" data-name="Group 13" transform="translate(-307 -408.654)">
            <path id="Path_52" d="M307 417.64a9 9 0 1 1 8.947 9.014A9 9 0 0 1 307 417.64zm9.871 4.248v-.235-3.239a1.148 1.148 0 0 1 .5-.992.983.983 0 0 1 1.554.525 2.875 2.875 0 0 1 .092.735c.01.988 0 1.976 0 2.964v.241h2.021c.005-.062.013-.113.013-.164 0-1.125.014-2.25-.009-3.375a4.533 4.533 0 0 0-.174-1.176 2.005 2.005 0 0 0-1.665-1.5 2.1 2.1 0 0 0-2.249.84c-.017.023-.037.042-.088.1v-.823h-2.023v6.1zm-5.191-6.11v6.108h2.008v-6.108zm1.005-.853a1.079 1.079 0 0 0 1.117-.772 1.043 1.043 0 0 0-.706-1.284 1.174 1.174 0 0 0-1.486.634 1.058 1.058 0 0 0 1.075 1.422z" class="cls-3" data-name="Path 52"/>
        </g>
    </g>
</svg>
