<svg xmlns="http://www.w3.org/2000/svg" width="17.996" height="18" viewBox="0 0 17.996 18">
    <defs>
        <style>
            .cls-1{fill:none}.cls-2{clip-path:url(#clip-path)}.cls-3{fill:#0075ff}
        </style>
        <clipPath id="clip-path">
            <path d="M0 0h17.996v18H0z" class="cls-1"/>
        </clipPath>
    </defs>
    <g id="twitter-icon" class="cls-2">
        <g id="Group_16" data-name="Group 16" transform="translate(-307.002 -497.413)">
            <path id="Path_58" d="M315.455 497.413h1.092c.042.01.083.021.125.027.449.069.9.117 1.346.21a8.371 8.371 0 0 1 2.662 1.076 8.96 8.96 0 0 1 2.648 2.468 8.841 8.841 0 0 1 1.583 4l.087.668v1.092c-.009.042-.02.083-.027.125-.07.454-.111.914-.213 1.36a8.992 8.992 0 0 1-17.526-4.036 8.92 8.92 0 0 1 2.04-3.965 8.981 8.981 0 0 1 5.528-2.938zm-3.932 12.771c.046.031.091.063.138.091a5.925 5.925 0 0 0 1.956.722 5.985 5.985 0 0 0 4.169-.718 5.6 5.6 0 0 0 1.87-1.79 6.161 6.161 0 0 0 1.059-3.563.264.264 0 0 1 .107-.216c.253-.239.5-.484.745-.733a1.677 1.677 0 0 0 .157-.22 2.252 2.252 0 0 0-.371.1c-.123.039-.249.069-.375.1s-.231.045-.347.067c.537-.51.8-.867.813-1.126-.051.023-.1.046-.145.064-.344.128-.69.253-1.033.383a.183.183 0 0 1-.215-.053 2.076 2.076 0 0 0-1.4-.583 2.112 2.112 0 0 0-2.168 2.179c.005.137.02.273.031.423a6.1 6.1 0 0 1-4.342-2.211 2.026 2.026 0 0 0-.286 1.077 2.136 2.136 0 0 0 .885 1.721l-.027.047-.88-.248a2.149 2.149 0 0 0 1.618 2.06l-.012.045h-.87a2.169 2.169 0 0 0 1.967 1.474 4.472 4.472 0 0 1-3.044.908z" class="cls-3" data-name="Path 58"/>
        </g>
    </g>
</svg>
